<svg width="130" height="19" viewBox="0 0 130 19" fill="none" xmlns="http://www.w3.org/2000/svg">
<path d="M4.625 18V15.9492L6.45312 15.5977V3.57422H3.34766L3.16016 5.61328H0.570312V0.9375H15.793V5.61328H13.1914L13.0039 3.57422H9.875V15.5977L11.7148 15.9492V18H4.625ZM22.1797 18.2461C20.9297 18.2461 19.8555 17.9727 18.957 17.4258C18.0586 16.8789 17.3711 16.1211 16.8945 15.1523C16.418 14.1758 16.1797 13.0547 16.1797 11.7891V11.543C16.1797 10.2852 16.418 9.17188 16.8945 8.20312C17.3711 7.22656 18.0547 6.46484 18.9453 5.91797C19.8438 5.36328 20.9141 5.08594 22.1562 5.08594C23.4141 5.08594 24.4883 5.36328 25.3789 5.91797C26.2695 6.46484 26.9531 7.22266 27.4297 8.19141C27.9062 9.16016 28.1445 10.2773 28.1445 11.543V11.7891C28.1445 13.0547 27.9062 14.1758 27.4297 15.1523C26.9531 16.1211 26.2695 16.8789 25.3789 17.4258C24.4883 17.9727 23.4219 18.2461 22.1797 18.2461ZM22.1797 15.6211C22.7734 15.6211 23.2578 15.4609 23.6328 15.1406C24.0078 14.8203 24.2852 14.375 24.4648 13.8047C24.6445 13.2266 24.7344 12.5547 24.7344 11.7891V11.543C24.7344 10.793 24.6445 10.1328 24.4648 9.5625C24.2852 8.98438 24.0039 8.53516 23.6211 8.21484C23.2461 7.88672 22.7578 7.72266 22.1562 7.72266C21.5703 7.72266 21.0859 7.88672 20.7031 8.21484C20.3203 8.53516 20.0391 8.98438 19.8594 9.5625C19.6875 10.1328 19.6016 10.793 19.6016 11.543V11.7891C19.6016 12.5547 19.6875 13.2266 19.8594 13.8047C20.0391 14.3828 20.3203 14.832 20.7031 15.1523C21.0859 15.4648 21.5781 15.6211 22.1797 15.6211ZM29.5977 18V15.9492L31.4375 15.5625V3.39844L29.5977 3V0.9375H31.4375H37.0859C38.6094 0.9375 39.9531 1.29688 41.1172 2.01562C42.2812 2.72656 43.1875 3.71484 43.8359 4.98047C44.4922 6.23828 44.8203 7.68359 44.8203 9.31641V9.63281C44.8203 11.25 44.4961 12.6914 43.8477 13.957C43.207 15.2148 42.3086 16.2031 41.1523 16.9219C39.9961 17.6406 38.6562 18 37.1328 18H29.5977ZM34.8594 15.3867H36.957C37.9023 15.3867 38.7031 15.1406 39.3594 14.6484C40.0156 14.1484 40.5156 13.4648 40.8594 12.5977C41.2109 11.7305 41.3867 10.7422 41.3867 9.63281V9.30469C41.3867 8.17969 41.2109 7.1875 40.8594 6.32812C40.5156 5.46094 40.0156 4.78516 39.3594 4.30078C38.7031 3.80859 37.9023 3.5625 36.957 3.5625H34.8594V15.3867ZM52.4375 18.2461C51.1875 18.2461 50.1133 17.9727 49.2148 17.4258C48.3164 16.8789 47.6289 16.1211 47.1523 15.1523C46.6758 14.1758 46.4375 13.0547 46.4375 11.7891V11.543C46.4375 10.2852 46.6758 9.17188 47.1523 8.20312C47.6289 7.22656 48.3125 6.46484 49.2031 5.91797C50.1016 5.36328 51.1719 5.08594 52.4141 5.08594C53.6719 5.08594 54.7461 5.36328 55.6367 5.91797C56.5273 6.46484 57.2109 7.22266 57.6875 8.19141C58.1641 9.16016 58.4023 10.2773 58.4023 11.543V11.7891C58.4023 13.0547 58.1641 14.1758 57.6875 15.1523C57.2109 16.1211 56.5273 16.8789 55.6367 17.4258C54.7461 17.9727 53.6797 18.2461 52.4375 18.2461ZM52.4375 15.6211C53.0312 15.6211 53.5156 15.4609 53.8906 15.1406C54.2656 14.8203 54.543 14.375 54.7227 13.8047C54.9023 13.2266 54.9922 12.5547 54.9922 11.7891V11.543C54.9922 10.793 54.9023 10.1328 54.7227 9.5625C54.543 8.98438 54.2617 8.53516 53.8789 8.21484C53.5039 7.88672 53.0156 7.72266 52.4141 7.72266C51.8281 7.72266 51.3438 7.88672 50.9609 8.21484C50.5781 8.53516 50.2969 8.98438 50.1172 9.5625C49.9453 10.1328 49.8594 10.793 49.8594 11.543V11.7891C49.8594 12.5547 49.9453 13.2266 50.1172 13.8047C50.2969 14.3828 50.5781 14.832 50.9609 15.1523C51.3438 15.4648 51.8359 15.6211 52.4375 15.6211ZM70.8477 18V15.9492L72.6758 15.5977V13.9219H65.7148L65.5508 12.2461L72.6406 0.9375H76.0859V11.6484H78.0195V13.9219H76.0859V15.5977L77.9023 15.9492V18H70.8477ZM68.7383 11.6484H72.6758V5.49609L72.6055 5.47266L72.3242 5.96484L68.7383 11.6484ZM89.832 18V15.9492L91.6602 15.5977V12.1523L86.5977 3.23438L84.957 3V0.9375H91.7656V3L90.3711 3.19922L93.207 8.64844L93.4648 9.19922L93.5352 9.1875L93.793 8.67188L96.9453 3.19922L95.0703 3V0.9375H101.75V3L100.062 3.23438L95.0703 11.8828V15.5977L96.8984 15.9492V18H89.832ZM108.242 18.2461C106.992 18.2461 105.918 17.9727 105.02 17.4258C104.121 16.8789 103.434 16.1211 102.957 15.1523C102.48 14.1758 102.242 13.0547 102.242 11.7891V11.543C102.242 10.2852 102.48 9.17188 102.957 8.20312C103.434 7.22656 104.117 6.46484 105.008 5.91797C105.906 5.36328 106.977 5.08594 108.219 5.08594C109.477 5.08594 110.551 5.36328 111.441 5.91797C112.332 6.46484 113.016 7.22266 113.492 8.19141C113.969 9.16016 114.207 10.2773 114.207 11.543V11.7891C114.207 13.0547 113.969 14.1758 113.492 15.1523C113.016 16.1211 112.332 16.8789 111.441 17.4258C110.551 17.9727 109.484 18.2461 108.242 18.2461ZM108.242 15.6211C108.836 15.6211 109.32 15.4609 109.695 15.1406C110.07 14.8203 110.348 14.375 110.527 13.8047C110.707 13.2266 110.797 12.5547 110.797 11.7891V11.543C110.797 10.793 110.707 10.1328 110.527 9.5625C110.348 8.98438 110.066 8.53516 109.684 8.21484C109.309 7.88672 108.82 7.72266 108.219 7.72266C107.633 7.72266 107.148 7.88672 106.766 8.21484C106.383 8.53516 106.102 8.98438 105.922 9.5625C105.75 10.1328 105.664 10.793 105.664 11.543V11.7891C105.664 12.5547 105.75 13.2266 105.922 13.8047C106.102 14.3828 106.383 14.832 106.766 15.1523C107.148 15.4648 107.641 15.6211 108.242 15.6211ZM121.121 18.2461C119.785 18.2461 118.734 17.8242 117.969 16.9805C117.211 16.1289 116.832 14.8086 116.832 13.0195V7.73438L115.438 7.38281V5.32031H116.832H120.254V13.043C120.254 13.9492 120.41 14.6016 120.723 15C121.043 15.3906 121.523 15.5859 122.164 15.5859C122.672 15.5859 123.121 15.4883 123.512 15.293C123.902 15.0898 124.223 14.8047 124.473 14.4375V7.73438L122.961 7.38281V5.32031H124.473H127.895V15.5977L129.418 15.9492V18H124.895L124.66 16.3945C124.262 16.9883 123.762 17.4453 123.16 17.7656C122.559 18.0859 121.879 18.2461 121.121 18.2461Z" fill="#008CFF"/>
</svg>
